<svg width="24" height="24" viewBox="0 0 24 24" fill="none" xmlns="http://www.w3.org/2000/svg">
<path d="M14.0003 17.7508C13.9018 17.7513 13.8041 17.7321 13.7131 17.6943C13.6221 17.6565 13.5396 17.6009 13.4703 17.5308L8.47032 12.5308C8.32987 12.3902 8.25098 12.1996 8.25098 12.0008C8.25098 11.8021 8.32987 11.6114 8.47032 11.4708L13.4703 6.47082C13.6125 6.33834 13.8005 6.26622 13.9948 6.26965C14.1891 6.27308 14.3745 6.35179 14.5119 6.4892C14.6494 6.62661 14.7281 6.812 14.7315 7.0063C14.7349 7.2006 14.6628 7.38865 14.5303 7.53082L10.0603 12.0008L14.5303 16.4708C14.6708 16.6114 14.7497 16.8021 14.7497 17.0008C14.7497 17.1996 14.6708 17.3902 14.5303 17.5308C14.4611 17.6009 14.3785 17.6565 14.2875 17.6943C14.1965 17.7321 14.0989 17.7513 14.0003 17.7508Z" fill="#4C2A85"/>
</svg>
