<svg width="24" height="24" viewBox="0 0 24 24" fill="none" xmlns="http://www.w3.org/2000/svg">
<path d="M10.0003 17.7508C9.90178 17.7513 9.80414 17.7321 9.71312 17.6943C9.62211 17.6565 9.53956 17.6009 9.47032 17.5308C9.32987 17.3902 9.25098 17.1996 9.25098 17.0008C9.25098 16.8021 9.32987 16.6114 9.47032 16.4708L13.9403 12.0008L9.47032 7.53082C9.33784 7.38865 9.26571 7.2006 9.26914 7.0063C9.27257 6.812 9.35128 6.62661 9.4887 6.4892C9.62611 6.35179 9.81149 6.27308 10.0058 6.26965C10.2001 6.26622 10.3881 6.33834 10.5303 6.47082L15.5303 11.4708C15.6708 11.6114 15.7497 11.8021 15.7497 12.0008C15.7497 12.1996 15.6708 12.3902 15.5303 12.5308L10.5303 17.5308C10.4611 17.6009 10.3785 17.6565 10.2875 17.6943C10.1965 17.7321 10.0989 17.7513 10.0003 17.7508Z" fill="#4C2A85"/>
</svg>
