<svg width="32" height="31" viewBox="0 0 32 31" fill="none" xmlns="http://www.w3.org/2000/svg">
<path d="M26.4236 10.9494C26.3176 10.7048 26.1462 10.4941 25.9283 10.3406C25.7104 10.187 25.4543 10.0965 25.1883 10.079L9.79193 9.1835C9.50806 9.16268 9.2244 9.22646 8.97676 9.36676C8.72912 9.50707 8.52862 9.71762 8.40057 9.97182C8.27252 10.226 8.22268 10.5125 8.25733 10.795C8.29198 11.0775 8.40958 11.3434 8.59526 11.5591L13.1192 16.5968L13.6459 23.3652C13.6695 23.6313 13.7666 23.8856 13.9264 24.0996C14.0862 24.3137 14.3024 24.4791 14.5508 24.5773L14.6437 24.6144C14.9172 24.701 15.2104 24.7033 15.4852 24.6211C15.76 24.5388 16.0038 24.3758 16.1848 24.1532L26.194 12.4406C26.3696 12.2393 26.4844 11.9923 26.525 11.7283C26.5657 11.4643 26.5305 11.1942 26.4236 10.9494ZM9.85574 10.695L23.2949 11.4763L14.0806 15.4302L9.85574 10.695ZM15.202 23.1361L14.6717 16.8078L23.886 12.8539L15.202 23.1361Z" fill="#4C2A85" fill-opacity="0.49"/>
</svg>
